<svg width="800" height="600" viewBox="0 0 800 600" xmlns="http://www.w3.org/2000/svg">
  <!-- Tablero Principal -->
  <rect x="100" y="50" width="600" height="450" rx="20" ry="20" fill="#fff" stroke="#e0d8c0" stroke-width="2"/>
  
  <!-- Barra lateral -->
  <rect x="100" y="50" width="150" height="450" rx="20" ry="20" fill="#f5f0e3"/>
  
  <!-- Logo en barra lateral -->
  <circle cx="175" cy="100" r="30" fill="#6D584B"/>
  <text x="175" y="110" font-family="Arial" font-size="30" fill="white" text-anchor="middle">P</text>
  
  <!-- Menú de navegación -->
  <rect x="125" y="170" width="100" height="30" rx="5" ry="5" fill="#8D6E63"/>
  <rect x="125" y="210" width="100" height="30" rx="5" ry="5" fill="#e0d8c0"/>
  <rect x="125" y="250" width="100" height="30" rx="5" ry="5" fill="#e0d8c0"/>
  <rect x="125" y="290" width="100" height="30" rx="5" ry="5" fill="#e0d8c0"/>
  <rect x="125" y="330" width="100" height="30" rx="5" ry="5" fill="#e0d8c0"/>
  
  <!-- Encabezado -->
  <rect x="270" y="80" width="400" height="50" rx="10" ry="10" fill="#f5f0e3"/>
  <circle cx="650" cy="105" r="20" fill="#A1887F"/>
  
  <!-- Widgets -->
  <rect x="270" y="150" width="180" height="120" rx="10" ry="10" fill="#e8f0e5"/>
  <rect x="470" y="150" width="180" height="120" rx="10" ry="10" fill="#f9e7e7"/>
  <rect x="270" y="290" width="380" height="180" rx="10" ry="10" fill="#e7f1f6"/>
  
  <!-- Íconos en widgets -->
  <circle cx="300" cy="180" r="15" fill="#4b6f44"/>
  <circle cx="500" cy="180" r="15" fill="#ac3f3f"/>
  
  <!-- Gráfico -->
  <polyline points="290,420 330,380 370,410 410,350 450,370 490,320 530,340 570,300" fill="none" stroke="#4b8aa6" stroke-width="3"/>
  <circle cx="290" cy="420" r="5" fill="#4b8aa6"/>
  <circle cx="330" cy="380" r="5" fill="#4b8aa6"/>
  <circle cx="370" cy="410" r="5" fill="#4b8aa6"/>
  <circle cx="410" cy="350" r="5" fill="#4b8aa6"/>
  <circle cx="450" cy="370" r="5" fill="#4b8aa6"/>
  <circle cx="490" cy="320" r="5" fill="#4b8aa6"/>
  <circle cx="530" cy="340" r="5" fill="#4b8aa6"/>
  <circle cx="570" cy="300" r="5" fill="#4b8aa6"/>
</svg>